# xmcd
#
# Track frame offsets:
#	150
#	13057
#	26625
#	44957
#	63370
#	80692
#	95772
#	112377
#	129360
#	144237
#	161875
#	179190
#	198745
#	214084
#	231407
#	250007
#
# Disc length: 3593 seconds
#
# Revision: 1
# Processed by: cddbd v1.5.1PL2 Copyright (c) Steve Scherf et al.
# Submitted via: audiograbber 1.83.01
#
DISCID=fc0e0710
DTITLE=Various Artist - 1995 CMA Awards
DYEAR=1995
DGENRE=Country
TTITLE0=Pam Tillis - Mi Vida Loca
TTITLE1=David Ball - Thinkin' Problem
TTITLE2=John Berry - Standing on the Edge of Goodbye
TTITLE3=Patty Loveless - You Don't Even Know Who I Am
TTITLE4=The Mavericks - What a Cryin' Shame
TTITLE5=George Strait - You Can't Make a Heart Love Somebody
TTITLE6=Mary Chapin Carpenter - Shut Up and Kiss Me
TTITLE7=Vince Gill - You Better Think Twice
TTITLE8=Faith Hill - Take Me As I Am
TTITLE9=John Michael Montgomery - I Can Love You Like That
TTITLE10=Reba McEntire - 'Til You Love Me
TTITLE11=Alison Krauss - When You ay Nothing at All
TTITLE12=Blackhawk - Goodbye Says it all
TTITLE13=The Tractors - Baby Likes to Rock It
TTITLE14=Shania Twain - Any Man of Mine
TTITLE15=Alan Jackson - Gone Country
EXTD=
EXTT0=
EXTT1=
EXTT2=
EXTT3=
EXTT4=
EXTT5=
EXTT6=
EXTT7=
EXTT8=
EXTT9=
EXTT10=
EXTT11=
EXTT12=
EXTT13=
EXTT14=
EXTT15=
PLAYORDER=
